<svg width="234" height="26" viewBox="0 0 234 26" fill="none" xmlns="http://www.w3.org/2000/svg">
<g clip-path="url(#clip0_811_107)">
<path d="M0 25.6078V0.396912H12.4311C14.0613 0.396912 15.4987 0.737788 16.7523 1.42421C18.0014 2.10596 18.9796 3.04454 19.673 4.23527C20.371 5.42134 20.72 6.78484 20.72 8.32112C20.72 9.8574 20.371 11.1415 19.673 12.3182C18.975 13.495 17.9968 14.4195 16.734 15.092C15.4711 15.7644 14.0338 16.1006 12.4311 16.1006H5.13408V25.6078H0ZM5.13408 11.7766H11.8616C12.973 11.7766 13.8638 11.4591 14.5343 10.824C15.2094 10.1889 15.5446 9.3671 15.5446 8.35848C15.5446 7.34986 15.2094 6.45797 14.5343 5.81825C13.8638 5.18319 12.9684 4.86566 11.8616 4.86566H5.13408V11.7812V11.7766Z" fill="white"/>
<path d="M18.0611 25.6078L28.265 0.396912H34.2165L44.2734 25.6078H38.7122L36.1957 19.019H25.923L23.4064 25.6078H18.0565H18.0611ZM27.5164 14.8024H34.6343L31.1259 5.51006L27.5119 14.8024H27.5164Z" fill="white"/>
<path d="M46.3628 25.6078V0.396912H58.4403C60.1394 0.396912 61.6319 0.728449 62.9223 1.38685C64.2081 2.04993 65.2138 2.96516 65.9347 4.14188C66.6557 5.31861 67.0139 6.67744 67.0139 8.21372C67.0139 9.75 66.5776 11.2069 65.7051 12.4443C64.8326 13.6818 63.6616 14.6017 62.2013 15.1994L67.689 25.6078H61.9533L57.0993 15.9558H51.5015V25.6078H46.3674H46.3628ZM51.4969 11.6692H58.0132C59.1704 11.6692 60.0981 11.3563 60.7915 10.7353C61.4895 10.1096 61.8385 9.29706 61.8385 8.28843C61.8385 7.27981 61.4895 6.42996 60.7915 5.80424C60.0935 5.17852 59.1658 4.87033 58.0132 4.87033H51.4969V11.6785V11.6692Z" fill="white"/>
<path d="M68.3916 25.6078L78.5908 0.396912H84.5423L94.5992 25.6078H89.0381L86.5216 19.019H76.2488L73.7323 25.6078H68.3824H68.3916ZM77.8469 14.8024H84.9648L81.4564 5.51006L77.8423 14.8024H77.8469Z" fill="white"/>
<path d="M96.6887 25.6078V0.396912H101.823V20.9943H115.388V25.6031H96.6887V25.6078Z" fill="white"/>
<path d="M118.929 25.6078V0.396912H124.063V20.9943H137.628V25.6031H118.929V25.6078Z" fill="white"/>
<path d="M141.173 25.6078V0.396912H160.226V4.9357H146.307V10.6979H155.483V15.0546H146.307V21.069H160.369V25.6078H141.173Z" fill="white"/>
<path d="M164.015 25.6078V0.396912H169.149V20.9943H182.714V25.6031H164.015V25.6078Z" fill="white"/>
<path d="M202.268 26C200.426 26 198.792 25.6871 197.363 25.0661C195.935 24.4404 194.824 23.5672 194.034 22.4371C193.244 21.3071 192.849 20.0136 192.849 18.5474C192.849 17.6369 193.056 16.7823 193.469 15.9885C193.883 15.1947 194.466 14.4943 195.223 13.8825C195.981 13.2708 196.854 12.8319 197.846 12.5657C196.592 12.1081 195.577 11.3843 194.801 10.3851C194.02 9.39045 193.63 8.28843 193.63 7.08836C193.63 5.74354 194.011 4.53879 194.783 3.46947C195.55 2.40014 196.578 1.55496 197.864 0.929239C199.15 0.303521 200.619 -0.00933838 202.272 -0.00933838C203.926 -0.00933838 205.4 0.303521 206.699 0.929239C207.999 1.55496 209.032 2.39547 209.799 3.45079C210.566 4.50611 210.952 5.72019 210.952 7.08836C210.952 8.28843 210.557 9.38578 209.767 10.3851C208.977 11.3797 207.953 12.1081 206.704 12.5657C208.192 13 209.395 13.7611 210.318 14.8538C211.236 15.9465 211.7 17.1746 211.7 18.5474C211.7 20.0136 211.305 21.3071 210.515 22.4371C209.726 23.5672 208.614 24.4404 207.186 25.0661C205.758 25.6918 204.123 26 202.282 26H202.268ZM202.268 22.0729C203.214 22.0729 204.031 21.9048 204.729 21.5686C205.427 21.2324 205.978 20.7841 206.392 20.2191C206.805 19.6541 207.012 19.0004 207.012 18.2579C207.012 17.5154 206.805 16.8524 206.392 16.278C205.978 15.7037 205.423 15.2507 204.729 14.9285C204.036 14.6063 203.214 14.4429 202.268 14.4429C201.322 14.4429 200.532 14.6063 199.825 14.9285C199.118 15.2507 198.557 15.699 198.144 16.2593C197.731 16.8244 197.524 17.4781 197.524 18.2205C197.524 18.963 197.731 19.6541 198.144 20.2191C198.557 20.7841 199.118 21.2324 199.825 21.5686C200.532 21.9048 201.349 22.0729 202.268 22.0729ZM202.268 10.908C203.049 10.908 203.742 10.7586 204.357 10.4598C204.973 10.1609 205.455 9.74066 205.808 9.19899C206.162 8.65733 206.341 8.05029 206.341 7.37787C206.341 6.70546 206.171 6.10776 205.827 5.57543C205.482 5.04777 205 4.63685 204.376 4.35201C203.751 4.0625 203.049 3.92241 202.268 3.92241C201.487 3.92241 200.785 4.06717 200.16 4.35201C199.536 4.64152 199.044 5.04777 198.691 5.57543C198.337 6.10309 198.158 6.7148 198.158 7.41056C198.158 8.10632 198.337 8.68534 198.691 9.213C199.044 9.74066 199.536 10.1562 200.16 10.4551C200.785 10.754 201.487 10.9034 202.268 10.9034V10.908Z" fill="#E88E2E"/>
<path d="M224.581 26C222.74 26 221.105 25.6871 219.677 25.0661C218.249 24.4404 217.137 23.5672 216.348 22.4371C215.558 21.3071 215.163 20.0136 215.163 18.5474C215.163 17.6369 215.369 16.7823 215.783 15.9885C216.196 15.1947 216.779 14.4943 217.537 13.8825C218.295 13.2708 219.167 12.8319 220.159 12.5657C218.905 12.1081 217.891 11.3843 217.115 10.3851C216.334 9.39045 215.944 8.28843 215.944 7.08836C215.944 5.74354 216.325 4.53879 217.096 3.46947C217.863 2.40014 218.892 1.55496 220.178 0.929239C221.463 0.303521 222.933 -0.00933838 224.586 -0.00933838C226.239 -0.00933838 227.713 0.303521 229.013 0.929239C230.313 1.55496 231.346 2.39547 232.113 3.45079C232.88 4.50611 233.265 5.72019 233.265 7.08836C233.265 8.28843 232.87 9.38578 232.08 10.3851C231.291 11.3797 230.267 12.1081 229.017 12.5657C230.505 13 231.709 13.7611 232.632 14.8538C233.55 15.9465 234.014 17.1746 234.014 18.5474C234.014 20.0136 233.619 21.3071 232.829 22.4371C232.039 23.5672 230.928 24.4404 229.5 25.0661C228.072 25.6918 226.437 26 224.595 26H224.581ZM224.581 22.0729C225.527 22.0729 226.345 21.9048 227.043 21.5686C227.741 21.2324 228.292 20.7841 228.705 20.2191C229.119 19.6541 229.325 19.0004 229.325 18.2579C229.325 17.5154 229.119 16.8524 228.705 16.278C228.292 15.7037 227.736 15.2507 227.043 14.9285C226.349 14.6063 225.527 14.4429 224.581 14.4429C223.635 14.4429 222.846 14.6063 222.138 14.9285C221.431 15.2507 220.871 15.699 220.458 16.2593C220.044 16.8244 219.838 17.4781 219.838 18.2205C219.838 18.963 220.044 19.6541 220.458 20.2191C220.871 20.7841 221.431 21.2324 222.138 21.5686C222.846 21.9048 223.663 22.0729 224.581 22.0729ZM224.581 10.908C225.362 10.908 226.056 10.7586 226.671 10.4598C227.286 10.1609 227.768 9.74066 228.122 9.19899C228.476 8.65733 228.655 8.05029 228.655 7.37787C228.655 6.70546 228.485 6.10776 228.14 5.57543C227.796 5.04777 227.314 4.63685 226.689 4.35201C226.065 4.0625 225.362 3.92241 224.581 3.92241C223.801 3.92241 223.098 4.06717 222.474 4.35201C221.849 4.64152 221.358 5.04777 221.004 5.57543C220.651 6.10309 220.471 6.7148 220.471 7.41056C220.471 8.10632 220.651 8.68534 221.004 9.213C221.358 9.74066 221.849 10.1562 222.474 10.4551C223.098 10.754 223.801 10.9034 224.581 10.9034V10.908Z" fill="#E88E2E"/>
</g>
<defs>
<clipPath id="clip0_811_107">
<rect width="234" height="26" fill="white"/>
</clipPath>
</defs>
</svg>
