<svg width="80" height="84" viewBox="0 0 80 84" fill="none" xmlns="http://www.w3.org/2000/svg">
<g clip-path="url(#clip0_720_448)">
<path d="M5.45095 2.41802C0.236994 5.45783 -1.55366 12.1718 1.47465 17.4056C4.50296 22.6394 11.1916 24.4368 16.4055 21.397C21.6195 18.3572 23.4101 11.6432 20.3818 6.40942C17.3535 1.17567 10.6649 -0.621786 5.45095 2.41802Z" fill="black"/>
<path d="M63.5945 22.4543C58.3805 25.4941 56.5899 32.2081 59.6182 37.4419C62.6465 42.6756 69.3351 44.4731 74.549 41.4333C79.763 38.3934 81.5537 31.6794 78.5254 26.4457C75.497 21.2119 68.8084 19.4145 63.5945 22.4543Z" fill="#E88E2E"/>
<path d="M18.3015 61.9983C12.2712 61.9983 7.3996 66.9413 7.3996 72.9945C7.3996 79.0477 12.3239 83.9378 18.3542 83.9378C24.3845 83.9378 29.2561 78.9948 29.2561 72.9416C29.2561 66.8884 24.3318 61.9983 18.3015 61.9983Z" fill="#E88E2E"/>
</g>
<defs>
<clipPath id="clip0_720_448">
<rect width="80" height="83" fill="white" transform="translate(0 0.937744)"/>
</clipPath>
</defs>
</svg>
