<svg width="163" height="91" viewBox="0 0 163 91" fill="none" xmlns="http://www.w3.org/2000/svg">
<g id="a" clip-path="url(#clip0_720_419)">
<path id="Vector" d="M81.3128 18.2369C86.2048 18.2369 90.1705 14.2393 90.1705 9.3079C90.1705 4.37655 86.2048 0.378906 81.3128 0.378906C76.4208 0.378906 72.4551 4.37655 72.4551 9.3079C72.4551 14.2393 76.4208 18.2369 81.3128 18.2369Z" fill="#E88E2E"/>
<path id="Vector_2" d="M53.0108 14.4072C55.4654 18.6673 54.014 24.1322 49.7666 26.6065C45.5405 29.0808 40.1191 27.6178 37.6646 23.3362C35.21 19.0761 36.6614 13.6111 40.9089 11.1368C45.1349 8.66248 50.5563 10.1255 53.0108 14.4072Z" fill="#E88E2E"/>
<path id="Vector_3" d="M23.3642 37.5365C27.5903 40.0108 29.0417 45.4542 26.6085 49.7358C24.1539 53.9959 18.7539 55.459 14.5065 53.0062C10.2804 50.5319 8.82901 45.0885 11.2622 40.8068C13.7168 36.5467 19.1168 35.0837 23.3642 37.5365Z" fill="#E88E2E"/>
<path id="Vector_4" d="M23.3642 37.5365C27.5903 40.0108 29.0417 45.4542 26.6085 49.7358C24.1539 53.9959 18.7539 55.459 14.5065 53.0062C10.2804 50.5319 8.82901 45.0885 11.2622 40.8068C13.7168 36.5467 19.1168 35.0837 23.3642 37.5365Z" fill="black"/>
<path id="Vector_5" d="M18.9033 62.7743C15.8938 62.7743 12.927 61.9783 10.259 60.4291C6.2464 58.0839 3.36498 54.3187 2.16972 49.8004C0.974463 45.2821 1.59344 40.5702 3.89857 36.5252C6.22506 32.4803 9.96023 29.5757 14.4424 28.3708C18.9247 27.1659 23.599 27.7899 27.6116 30.1136C31.6243 32.4588 34.5057 36.224 35.7009 40.7423C36.8962 45.2606 36.2772 49.9725 33.9721 54.0175C31.6456 58.0624 27.9104 60.967 23.4282 62.1719C21.9341 62.5807 20.4187 62.7743 18.9033 62.7743ZM18.946 32.2866C17.8361 32.2866 16.7049 32.4373 15.595 32.7385C12.2654 33.6421 9.49067 35.7937 7.78316 38.7844C6.0543 41.7966 5.60608 45.2821 6.50253 48.6385C7.39897 51.995 9.53336 54.792 12.5002 56.5133C15.4883 58.256 18.946 58.7079 22.2756 57.8042C25.6053 56.9006 28.38 54.749 30.0875 51.7583C31.8164 48.7461 32.2646 45.2606 31.3681 41.9041C30.4717 38.5477 28.3373 35.7507 25.3705 34.0294C23.3855 32.8676 21.1871 32.2866 18.946 32.2866Z" fill="black"/>
<path id="Vector_6" d="M9.17051 90.3789C14.0625 90.3789 18.0282 86.3812 18.0282 81.4499C18.0282 76.5185 14.0625 72.5209 9.17051 72.5209C4.27854 72.5209 0.312805 76.5185 0.312805 81.4499C0.312805 86.3812 4.27854 90.3789 9.17051 90.3789Z" fill="#E88E2E"/>
<path id="Vector_7" d="M109.615 14.4072C107.16 18.6673 108.612 24.1322 112.859 26.6065C117.085 29.0808 122.506 27.6178 124.961 23.3362C127.416 19.0761 125.964 13.6111 121.717 11.1368C117.491 8.66248 112.069 10.1255 109.615 14.4072Z" fill="#E88E2E"/>
<path id="Vector_8" d="M139.261 37.5365C135.035 40.0108 133.584 45.4542 136.017 49.7358C138.472 53.9959 143.872 55.459 148.119 53.0062C152.345 50.5319 153.797 45.0885 151.363 40.8068C148.909 36.5467 143.509 35.0837 139.261 37.5365Z" fill="#E88E2E"/>
<path id="Vector_9" d="M153.455 72.5209C148.567 72.5209 144.597 76.5228 144.597 81.4499C144.597 86.377 148.567 90.3789 153.455 90.3789C158.343 90.3789 162.313 86.377 162.313 81.4499C162.313 76.5228 158.343 72.5209 153.455 72.5209Z" fill="#E88E2E"/>
</g>
<defs>
<clipPath id="clip0_720_419">
<rect width="162" height="90" fill="white" transform="translate(0.312805 0.378906)"/>
</clipPath>
</defs>
</svg>
