<svg width="99" height="69" viewBox="0 0 99 69" fill="none" xmlns="http://www.w3.org/2000/svg">
<g id="a" clip-path="url(#clip0_3863_4)">
<path id="Vector" d="M44.256 20.7325C49.772 20.7325 54.2437 16.2852 54.2437 10.7993C54.2437 5.31342 49.772 0.866211 44.256 0.866211C38.7399 0.866211 34.2682 5.31342 34.2682 10.7993C34.2682 16.2852 38.7399 20.7325 44.256 20.7325Z" fill="black"/>
<path id="Vector_2" d="M17.9028 29.4689C15.1351 34.208 16.7717 40.2876 21.561 43.0401C26.3262 45.7927 32.4392 44.1651 35.2068 39.402C37.9745 34.6628 36.338 28.5833 31.5487 25.8307C26.7835 23.0782 20.6705 24.7057 17.9028 29.4689Z" fill="black"/>
<path id="Vector_3" d="M5.21959 50.3404C0.454368 53.0929 -1.18217 59.1485 1.56144 63.9116C4.32912 68.6508 10.418 70.2784 15.2073 67.5498C19.9725 64.7972 21.6091 58.7416 18.8655 53.9785C16.0978 49.2393 10.0089 47.6117 5.21959 50.3404Z" fill="black"/>
<path id="Vector_4" d="M88.2501 20.7325C93.7661 20.7325 98.2378 16.2852 98.2378 10.7993C98.2378 5.31342 93.7661 0.866211 88.2501 0.866211C82.734 0.866211 78.2623 5.31342 78.2623 10.7993C78.2623 16.2852 82.734 20.7325 88.2501 20.7325Z" fill="#E88E2E"/>
<path id="Vector_5" d="M61.8969 29.4689C59.1293 34.208 60.7658 40.2876 65.5551 43.0401C70.3203 45.7927 76.4333 44.1651 79.201 39.402C81.9686 34.6628 80.3321 28.5833 75.5428 25.8307C70.7776 23.0782 64.6646 24.7057 61.8969 29.4689Z" fill="#E88E2E"/>
<path id="Vector_6" d="M49.2378 50.3404C44.4726 53.0929 42.836 59.1485 45.5796 63.9116C48.3473 68.6508 54.4362 70.2784 59.2255 67.5498C63.9907 64.7972 65.6273 58.7416 62.8837 53.9785C60.116 49.2393 54.0271 47.6117 49.2378 50.3404Z" fill="#E88E2E"/>
</g>
<defs>
<clipPath id="clip0_3863_4">
<rect width="98" height="68" fill="white" transform="translate(0.237793 0.866211)"/>
</clipPath>
</defs>
</svg>
